<!DOCTYPE svg PUBLIC "-//W3C//DTD SVG 20010904//EN" "http://www.w3.org/TR/2001/REC-SVG-20010904/DTD/svg10.dtd">
<svg version="1.0" xmlns="http://www.w3.org/2000/svg" width="217px" height="199px" viewBox="0 0 2170 1990" preserveAspectRatio="xMidYMid meet">
<g id="layer1" fill="#898989" stroke="none">
 <path d="M95 1971 c-42 -25 -70 -60 -84 -100 -8 -24 -11 -213 -11 -640 l0 -606 48 49 c26 27 157 138 292 246 135 109 308 250 385 314 177 149 257 191 360 191 103 0 183 -42 360 -191 77 -64 241 -198 365 -296 124 -99 255 -210 293 -246 l67 -66 0 606 c0 425 -3 615 -11 639 -14 40 -53 85 -91 105 -23 12 -180 14 -985 14 -917 0 -959 -1 -988 -19z"/>
 <path d="M994 1255 c-27 -13 -79 -48 -115 -77 -360 -290 -665 -541 -712 -587 -73 -70 -134 -157 -152 -219 -19 -63 -19 -197 0 -254 9 -25 32 -60 51 -79 l35 -34 962 -3 c529 -1 972 0 984 3 34 8 84 56 104 100 13 29 19 64 19 125 0 144 -32 223 -134 329 -41 43 -387 330 -745 619 -85 68 -154 102 -206 102 -24 0 -62 -10 -91 -25z"/>
 </g>

</svg>