<!DOCTYPE svg PUBLIC "-//W3C//DTD SVG 20010904//EN" "http://www.w3.org/TR/2001/REC-SVG-20010904/DTD/svg10.dtd">
<svg version="1.0" xmlns="http://www.w3.org/2000/svg" width="173px" height="234px" viewBox="0 0 1730 2340" preserveAspectRatio="xMidYMid meet">
<g id="layer1" fill="#d2d2d2" stroke="none">
 <path d="M95 2330 c-13 -5 -14 -9 -5 -9 8 0 24 4 35 9 13 5 14 9 5 9 -8 0 -24 -4 -35 -9z"/>
 <path d="M1605 2330 c11 -5 27 -9 35 -9 9 0 8 4 -5 9 -11 5 -27 9 -35 9 -9 0 -8 -4 5 -9z"/>
 <path d="M11 2249 c-17 -50 -13 -57 9 -14 23 45 23 45 11 45 -5 0 -14 -14 -20 -31z"/>
 <path d="M1690 2277 c0 -1 9 -20 20 -42 22 -43 26 -36 9 14 -6 17 -15 31 -20 31 -5 0 -9 -1 -9 -3z"/>
 <path d="M730 1975 c0 -13 21 -15 125 -15 77 0 125 -4 125 -10 0 -5 7 -10 16 -10 11 0 14 5 10 16 -3 9 -6 20 -6 25 0 5 -60 9 -135 9 -113 0 -135 -2 -135 -15z"/>
 <path d="M720 1940 c0 -5 7 -10 15 -10 8 0 15 5 15 10 0 6 -7 10 -15 10 -8 0 -15 -4 -15 -10z"/>
 <path d="M730 1890 c0 -5 7 -10 15 -10 8 0 15 5 15 10 0 6 -7 10 -15 10 -8 0 -15 -4 -15 -10z"/>
 <path d="M960 1840 c0 -5 7 -10 15 -10 8 0 15 5 15 10 0 6 -7 10 -15 10 -8 0 -15 -4 -15 -10z"/>
 <path d="M950 1790 c0 -5 7 -10 15 -10 8 0 15 5 15 10 0 6 -7 10 -15 10 -8 0 -15 -4 -15 -10z"/>
 <path d="M750 1780 c0 -5 7 -10 15 -10 8 0 15 5 15 10 0 6 -7 10 -15 10 -8 0 -15 -4 -15 -10z"/>
 <path d="M760 1730 c0 -5 7 -10 15 -10 8 0 15 5 15 10 0 6 -7 10 -15 10 -8 0 -15 -4 -15 -10z"/>
 <path d="M740 1665 c-7 -9 -10 -18 -7 -22 8 -7 37 15 37 28 0 14 -16 11 -30 -6z"/>
 <path d="M960 1671 c0 -13 29 -35 37 -28 7 8 -15 37 -28 37 -5 0 -9 -4 -9 -9z"/>
 <path d="M1010 1550 c0 -20 5 -30 15 -30 10 0 15 10 15 30 0 20 -5 30 -15 30 -10 0 -15 -10 -15 -30z"/>
 <path d="M690 1520 c0 -5 7 -10 15 -10 8 0 15 5 15 10 0 6 -7 10 -15 10 -8 0 -15 -4 -15 -10z"/>
 <path d="M770 1410 c0 -5 7 -10 15 -10 8 0 15 5 15 10 0 6 -7 10 -15 10 -8 0 -15 -4 -15 -10z"/>
 <path d="M1 1150 c0 -8 4 -24 9 -35 5 -13 9 -14 9 -5 0 8 -4 24 -9 35 -5 13 -9 14 -9 5z"/>
 <path d="M1716 1134 c-4 -14 -5 -28 -3 -31 3 -2 8 8 11 23 4 14 5 28 3 31 -3 2 -8 -8 -11 -23z"/>
 <path d="M30 1081 c0 -13 29 -35 37 -28 7 8 -15 37 -28 37 -5 0 -9 -4 -9 -9z"/>
 <path d="M1670 1075 c-7 -9 -10 -18 -7 -22 8 -7 37 15 37 28 0 14 -16 11 -30 -6z"/>
 <path d="M1160 745 c0 -149 2 -175 15 -175 13 0 15 26 15 175 0 149 -2 175 -15 175 -13 0 -15 -26 -15 -175z"/>
 <path d="M540 575 c0 -8 7 -15 15 -15 8 0 15 7 15 15 0 8 -7 15 -15 15 -8 0 -15 -7 -15 -15z"/>
 <path d="M1150 530 c0 -5 7 -10 15 -10 8 0 15 5 15 10 0 6 -7 10 -15 10 -8 0 -15 -4 -15 -10z"/>
 <path d="M1460 520 c0 -5 7 -10 15 -10 8 0 15 5 15 10 0 6 -7 10 -15 10 -8 0 -15 -4 -15 -10z"/>
 <path d="M240 510 c0 -5 7 -10 15 -10 8 0 15 5 15 10 0 6 -7 10 -15 10 -8 0 -15 -4 -15 -10z"/>
 <path d="M570 494 c0 -5 7 -19 15 -30 8 -10 15 -14 15 -8 0 5 -7 19 -15 30 -8 10 -15 14 -15 8z"/>
 <path d="M1450 470 c0 -5 7 -10 15 -10 8 0 15 5 15 10 0 6 -7 10 -15 10 -8 0 -15 -4 -15 -10z"/>
 <path d="M290 375 c0 -13 42 -86 46 -82 6 5 -33 87 -41 87 -3 0 -5 -2 -5 -5z"/>
 <path d="M1415 350 c-9 -18 -14 -34 -11 -37 2 -3 12 9 21 27 9 18 14 34 11 37 -2 3 -12 -9 -21 -27z"/>
 <path d="M700 341 c0 -12 39 -25 48 -16 7 7 -17 25 -35 25 -7 0 -13 -4 -13 -9z"/>
 <path d="M980 330 c0 -5 7 -10 15 -10 8 0 15 5 15 10 0 6 -7 10 -15 10 -8 0 -15 -4 -15 -10z"/>
 <path d="M810 305 c0 -8 5 -15 10 -15 6 0 10 7 10 15 0 8 -4 15 -10 15 -5 0 -10 -7 -10 -15z"/>
 <path d="M890 305 c0 -8 7 -15 15 -15 8 0 15 7 15 15 0 8 -7 15 -15 15 -8 0 -15 -7 -15 -15z"/>
 <path d="M1290 185 c-18 -19 -30 -38 -27 -42 8 -7 77 55 77 69 0 16 -17 7 -50 -27z"/>
 <path d="M560 71 c0 -12 39 -25 48 -16 7 7 -17 25 -35 25 -7 0 -13 -4 -13 -9z"/>
 <path d="M1070 40 c0 -5 7 -10 15 -10 8 0 15 5 15 10 0 6 -7 10 -15 10 -8 0 -15 -4 -15 -10z"/>
 </g>
<g id="layer2" fill="#a8a8a8" stroke="none">
 <path d="M101 2329 c-13 -5 -21 -12 -17 -16 3 -3 16 -1 29 5 12 6 29 13 37 15 10 4 8 5 -5 6 -11 0 -31 -5 -44 -10z"/>
 <path d="M1580 2333 c8 -2 25 -9 37 -15 13 -6 26 -8 29 -5 8 8 -40 27 -64 26 -14 0 -14 -2 -2 -6z"/>
 <path d="M10 2236 c-5 -15 -10 -35 -10 -44 1 -9 7 1 15 23 16 44 11 63 -5 21z"/>
 <path d="M1700 2260 c0 -3 7 -23 16 -45 l15 -40 -6 35 c-3 19 -10 39 -15 44 -6 6 -10 8 -10 6z"/>
 <path d="M980 1930 c0 -5 7 -10 15 -10 8 0 15 5 15 10 0 6 -7 10 -15 10 -8 0 -15 -4 -15 -10z"/>
 <path d="M970 1880 c0 -5 7 -10 15 -10 8 0 15 5 15 10 0 6 -7 10 -15 10 -8 0 -15 -4 -15 -10z"/>
 <path d="M730 1870 c0 -5 7 -10 15 -10 8 0 15 5 15 10 0 6 -7 10 -15 10 -8 0 -15 -4 -15 -10z"/>
 <path d="M740 1820 c0 -5 7 -10 15 -10 8 0 15 5 15 10 0 6 -7 10 -15 10 -8 0 -15 -4 -15 -10z"/>
 <path d="M950 1770 c0 -5 7 -10 15 -10 8 0 15 5 15 10 0 6 -7 10 -15 10 -8 0 -15 -4 -15 -10z"/>
 <path d="M940 1720 c0 -5 7 -10 15 -10 8 0 15 5 15 10 0 6 -7 10 -15 10 -8 0 -15 -4 -15 -10z"/>
 <path d="M764 1704 c3 -9 6 -19 6 -22 0 -9 20 21 20 31 0 4 -7 7 -16 7 -11 0 -14 -5 -10 -16z"/>
 <path d="M706 1616 c-20 -31 -20 -36 -2 -36 7 0 16 12 19 28 7 36 3 38 -17 8z"/>
 <path d="M0 1168 c0 -20 19 -72 25 -67 2 3 -2 23 -10 44 -8 22 -14 32 -15 23z"/>
 <path d="M1713 1143 c-6 -21 -10 -40 -8 -42 7 -6 26 51 23 66 -2 8 -8 -3 -15 -24z"/>
 <path d="M80 1040 c0 -5 7 -10 15 -10 8 0 15 5 15 10 0 6 -7 10 -15 10 -8 0 -15 -4 -15 -10z"/>
 <path d="M140 1025 c0 -13 87 -15 725 -15 638 0 725 2 725 15 0 13 -87 15 -725 15 -638 0 -725 -2 -725 -15z"/>
 <path d="M1160 560 c0 -5 7 -10 15 -10 8 0 15 5 15 10 0 6 -7 10 -15 10 -8 0 -15 -4 -15 -10z"/>
 <path d="M1460 545 c0 -8 7 -15 15 -15 8 0 15 7 15 15 0 8 -7 15 -15 15 -8 0 -15 -7 -15 -15z"/>
 <path d="M240 535 c0 -8 7 -15 15 -15 8 0 15 7 15 15 0 8 -7 15 -15 15 -8 0 -15 -7 -15 -15z"/>
 <path d="M1122 448 c-14 -14 -16 -28 -3 -28 9 0 24 30 18 36 -2 2 -9 -2 -15 -8z"/>
 <path d="M1030 360 c-8 -5 -11 -12 -8 -16 10 -9 38 3 38 16 0 12 -10 13 -30 0z"/>
 <path d="M400 202 c0 -14 39 -46 47 -39 3 4 -2 16 -12 27 -19 21 -35 26 -35 12z"/>
 <path d="M550 82 c0 -9 64 -42 80 -42 21 0 8 17 -25 33 -39 19 -55 21 -55 9z"/>
 <path d="M1133 78 c-23 -11 -31 -28 -13 -28 16 0 60 23 60 32 0 11 -20 9 -47 -4z"/>
 <path d="M725 20 c-3 -5 3 -10 15 -10 12 0 18 5 15 10 -3 6 -10 10 -15 10 -5 0 -12 -4 -15 -10z"/>
 <path d="M975 20 c-3 -5 3 -10 15 -10 12 0 18 5 15 10 -3 6 -10 10 -15 10 -5 0 -12 -4 -15 -10z"/>
 <path d="M793 3 c9 -2 25 -2 35 0 9 3 1 5 -18 5 -19 0 -27 -2 -17 -5z"/>
 <path d="M903 3 c9 -2 25 -2 35 0 9 3 1 5 -18 5 -19 0 -27 -2 -17 -5z"/>
 </g>
<g id="layer3" fill="#f1f1f1" stroke="none">
 <path d="M74 2326 c-33 -15 -50 -33 -40 -43 3 -3 20 5 38 19 18 14 40 27 48 31 13 5 13 5 0 6 -8 0 -29 -6 -46 -13z"/>
 <path d="M1610 2334 c8 -4 29 -18 46 -31 34 -25 44 -28 44 -13 0 14 -40 38 -75 44 -16 4 -23 3 -15 0z"/>
 <path d="M6 2244 c-4 -14 -5 -28 -3 -31 3 -2 8 8 11 23 4 14 5 28 3 31 -3 2 -8 -8 -11 -23z"/>
 <path d="M1711 2260 c0 -8 4 -24 9 -35 5 -13 9 -14 9 -5 0 8 -4 24 -9 35 -5 13 -9 14 -9 5z"/>
 <path d="M970 1910 c0 -5 7 -10 15 -10 8 0 15 5 15 10 0 6 -7 10 -15 10 -8 0 -15 -4 -15 -10z"/>
 <path d="M960 1860 c0 -5 7 -10 15 -10 8 0 15 5 15 10 0 6 -7 10 -15 10 -8 0 -15 -4 -15 -10z"/>
 <path d="M740 1850 c0 -5 7 -10 15 -10 8 0 15 5 15 10 0 6 -7 10 -15 10 -8 0 -15 -4 -15 -10z"/>
 <path d="M750 1800 c0 -5 7 -10 15 -10 8 0 15 5 15 10 0 6 -7 10 -15 10 -8 0 -15 -4 -15 -10z"/>
 <path d="M940 1750 c0 -5 7 -10 15 -10 8 0 15 5 15 10 0 6 -7 10 -15 10 -8 0 -15 -4 -15 -10z"/>
 <path d="M932 1693 c5 -25 28 -28 28 -4 0 12 -6 21 -16 21 -9 0 -14 -7 -12 -17z"/>
 <path d="M770 1690 c0 -5 7 -10 15 -10 8 0 15 5 15 10 0 6 -7 10 -15 10 -8 0 -15 -4 -15 -10z"/>
 <path d="M690 1550 c0 -11 7 -20 15 -20 8 0 15 9 15 20 0 11 -7 20 -15 20 -8 0 -15 -9 -15 -20z"/>
 <path d="M740 1441 c0 -12 40 -41 57 -41 7 0 13 4 13 8 0 8 -14 16 -62 40 -5 2 -8 -1 -8 -7z"/>
 <path d="M920 1410 c0 -5 7 -10 15 -10 8 0 15 5 15 10 0 6 -7 10 -15 10 -8 0 -15 -4 -15 -10z"/>
 <path d="M880 1395 c0 -8 5 -15 10 -15 6 0 10 7 10 15 0 8 -4 15 -10 15 -5 0 -10 -7 -10 -15z"/>
 <path d="M70 1042 c0 -8 43 -32 55 -32 3 0 5 6 5 14 0 7 -10 16 -22 20 -31 8 -38 7 -38 -2z"/>
 <path d="M1618 1043 c-10 -2 -18 -11 -18 -19 0 -17 2 -17 35 -2 42 19 31 34 -17 21z"/>
 <path d="M237 934 c-4 -4 -7 -90 -7 -191 0 -156 2 -183 15 -183 13 0 15 26 15 175 l0 175 140 0 140 0 0 -160 c0 -137 2 -160 15 -160 13 0 15 23 13 173 l-3 172 -161 3 c-88 1 -163 -1 -167 -4z"/>
 <path d="M1170 925 c0 -13 22 -15 150 -15 l150 0 0 -160 c0 -137 2 -160 15 -160 13 0 15 23 13 173 l-3 172 -162 3 c-141 2 -163 0 -163 -13z"/>
 <path d="M570 505 c0 -12 35 -75 42 -75 12 0 10 5 -13 44 -19 33 -29 43 -29 31z"/>
 <path d="M1131 475 c-23 -40 -25 -45 -13 -45 10 0 45 70 39 77 -3 2 -14 -12 -26 -32z"/>
 <path d="M632 399 c2 -7 10 -15 17 -17 8 -3 12 1 9 9 -2 7 -10 15 -17 17 -8 3 -12 -1 -9 -9z"/>
 <path d="M290 365 c0 -13 32 -66 36 -62 6 6 -23 67 -31 67 -3 0 -5 -2 -5 -5z"/>
 <path d="M680 360 c0 -10 52 -40 70 -40 21 0 9 17 -25 33 -41 20 -45 20 -45 7z"/>
 <path d="M1003 353 c-32 -16 -44 -33 -23 -33 18 0 70 30 70 40 0 13 -9 12 -47 -7z"/>
 <path d="M930 315 c0 -8 5 -15 10 -15 6 0 10 7 10 15 0 8 -4 15 -10 15 -5 0 -10 -7 -10 -15z"/>
 <path d="M830 305 c0 -10 10 -15 30 -15 20 0 30 5 30 15 0 10 -10 15 -30 15 -20 0 -30 -5 -30 -15z"/>
 <path d="M1366 266 c-28 -37 -31 -46 -17 -46 11 0 55 69 49 76 -3 2 -17 -11 -32 -30z"/>
 <path d="M400 191 c0 -13 29 -35 37 -28 7 8 -15 37 -28 37 -5 0 -9 -4 -9 -9z"/>
 <path d="M470 131 c0 -12 54 -51 69 -51 20 0 11 15 -24 38 -38 24 -45 26 -45 13z"/>
 <path d="M1183 98 c-24 -11 -31 -28 -12 -28 17 0 49 20 49 30 0 12 -9 12 -37 -2z"/>
 <path d="M1090 50 c-8 -5 -12 -12 -8 -15 9 -9 48 4 48 16 0 12 -21 11 -40 -1z"/>
 <path d="M620 40 c0 -5 7 -10 15 -10 8 0 15 5 15 10 0 6 -7 10 -15 10 -8 0 -15 -4 -15 -10z"/>
 </g>
<g id="layer4" fill="#898989" stroke="none">
 <path d="M110 2328 c-49 -14 -86 -52 -99 -103 -15 -60 -15 -1035 0 -1090 12 -45 40 -80 81 -101 40 -21 1506 -21 1546 0 41 21 69 56 81 101 15 55 15 1030 0 1090 -13 52 -50 89 -104 104 -52 14 -1454 14 -1505 -1z m880 -370 c0 -7 -11 -69 -24 -138 l-24 -125 33 -37 c95 -105 29 -260 -111 -260 -140 0 -208 173 -105 266 26 24 26 44 1 174 -11 56 -20 109 -20 117 0 12 22 15 125 15 93 0 125 -3 125 -12z"/>
 <path d="M244 915 c-4 -8 -4 -106 -2 -218 5 -222 15 -271 81 -387 46 -82 168 -199 256 -244 156 -81 405 -83 562 -5 146 74 261 207 316 366 26 75 27 87 27 288 l1 210 -155 0 -155 0 -5 -200 c-5 -192 -6 -202 -32 -250 -31 -60 -77 -104 -138 -136 -38 -20 -60 -24 -135 -24 -78 0 -97 4 -141 27 -27 14 -67 45 -87 67 -65 72 -70 94 -76 316 l-6 200 -153 3 c-130 2 -153 0 -158 -13z"/>
 </g>

</svg>