<!DOCTYPE svg PUBLIC "-//W3C//DTD SVG 20010904//EN" "http://www.w3.org/TR/2001/REC-SVG-20010904/DTD/svg10.dtd">
<svg version="1.0" xmlns="http://www.w3.org/2000/svg" width="436px" height="468px" viewBox="0 0 4360 4680" preserveAspectRatio="xMidYMid meet">
<g id="layer1" fill="#ffffff" stroke="none">
 <path d="M3763 4665 c-29 -7 -72 -24 -95 -38 -54 -31 -149 -130 -176 -182 -74 -146 -68 -333 16 -465 l28 -45 -223 -315 c-123 -173 -243 -343 -268 -377 l-44 -62 -45 20 c-143 63 -364 80 -521 40 -176 -45 -353 -162 -460 -305 l-56 -74 -87 34 c-48 19 -271 108 -497 197 l-410 163 -2 45 c-7 133 -56 244 -144 331 -177 173 -453 179 -635 14 -105 -94 -143 -188 -144 -351 0 -156 35 -241 139 -338 183 -169 445 -169 632 1 l54 49 495 -197 c470 -187 495 -199 492 -221 -2 -13 -3 -82 -4 -154 0 -104 4 -146 21 -210 99 -368 430 -624 808 -625 82 0 83 0 89 -27 4 -16 49 -183 99 -372 l93 -344 -67 -63 c-113 -106 -156 -213 -149 -368 3 -77 9 -102 36 -160 85 -182 221 -266 428 -266 148 0 238 34 326 123 152 152 182 386 75 570 -31 52 -133 150 -185 176 -48 24 -138 51 -173 51 -33 0 -22 -34 -140 410 -50 189 -87 346 -82 347 42 14 151 91 216 153 328 311 354 801 61 1146 l-43 51 265 374 c226 318 269 373 287 370 12 -2 74 -4 138 -5 114 -1 116 -1 192 37 124 61 211 162 243 279 18 70 18 216 -2 290 -35 136 -156 256 -296 294 -64 17 -214 16 -285 -1z m242 -267 c88 -46 125 -171 77 -263 -35 -70 -93 -105 -173 -105 -113 0 -189 70 -197 180 -12 161 149 263 293 188z m-3494 -909 c116 -39 171 -165 120 -274 -48 -105 -162 -143 -269 -89 -87 43 -126 135 -97 230 31 105 145 167 246 133z m2292 -519 c146 -46 270 -153 337 -292 182 -375 -89 -808 -505 -808 -246 0 -465 160 -537 393 -32 101 -32 246 0 338 45 131 120 231 226 300 145 95 315 120 479 69z m455 -2341 c134 -66 137 -281 4 -348 -54 -27 -95 -34 -140 -22 -145 39 -200 197 -112 321 47 66 164 89 248 49z"/>
 </g>

</svg>