<!DOCTYPE svg PUBLIC "-//W3C//DTD SVG 20010904//EN" "http://www.w3.org/TR/2001/REC-SVG-20010904/DTD/svg10.dtd">
<svg version="1.0" xmlns="http://www.w3.org/2000/svg" width="732px" height="101px" viewBox="0 0 7320 1010" preserveAspectRatio="xMidYMid meet">
<g id="layer1" fill="#ffffff" stroke="none">
 <path d="M5115 1005 c-5 -2 -29 -9 -52 -15 -56 -14 -140 -91 -169 -155 -23 -49 -24 -58 -24 -324 0 -185 4 -287 12 -315 16 -55 119 -159 174 -176 21 -7 86 -15 143 -17 163 -8 239 16 321 101 l35 37 -25 19 c-33 26 -37 25 -55 -9 -10 -20 -37 -40 -82 -63 -61 -30 -76 -33 -158 -33 -106 0 -179 21 -232 68 -61 54 -63 65 -63 382 0 266 1 289 20 325 26 51 75 88 151 111 112 35 254 15 334 -46 61 -46 75 -88 75 -219 l0 -115 -147 -3 -148 -3 0 -25 0 -25 180 0 180 0 3 137 c2 123 0 143 -19 188 -26 60 -113 144 -167 161 -36 11 -267 23 -287 14z"/>
 <path d="M0 505 l0 -497 238 4 239 3 40 27 c76 50 113 120 113 211 0 75 -20 126 -68 176 -24 25 -39 47 -33 49 33 11 90 66 115 111 75 138 26 324 -102 387 -32 17 -69 19 -289 22 l-253 4 0 -497z m511 414 c74 -35 99 -82 99 -191 0 -100 -26 -152 -95 -188 -47 -24 -58 -25 -257 -28 l-208 -3 0 221 0 222 203 -4 c194 -3 204 -4 258 -29z m-31 -501 c58 -30 85 -80 85 -163 0 -80 -27 -132 -86 -165 -42 -24 -53 -25 -236 -28 l-193 -4 0 191 0 191 193 0 c180 0 196 -1 237 -22z"/>
 <path d="M850 505 l0 -495 311 0 310 0 -3 23 -3 22 -272 3 -273 2 0 205 0 205 253 2 252 3 0 30 0 30 -252 3 -253 2 0 205 0 205 273 2 272 3 3 23 3 22 -310 0 -311 0 0 -495z"/>
 <path d="M1535 983 c4 -10 87 -232 185 -493 l176 -475 44 0 44 0 176 475 c98 261 181 483 185 493 7 16 3 18 -30 15 l-37 -3 -62 -165 -62 -165 -214 0 -214 0 -62 165 -62 165 -37 3 c-33 3 -37 1 -30 -15z m502 -638 c-50 -135 -94 -245 -97 -245 -3 0 -47 110 -97 245 l-90 245 187 0 187 0 -90 -245z"/>
 <path d="M2470 504 l0 -495 52 3 52 3 167 379 168 379 28 -64 c16 -35 92 -207 168 -382 l139 -317 53 0 53 0 0 495 0 495 -35 0 -35 0 -2 -451 -3 -451 -159 363 c-88 200 -166 372 -175 382 -9 11 -25 17 -40 15 -24 -3 -41 -36 -196 -385 l-170 -381 -3 454 -2 454 -30 0 -30 0 0 -496z"/>
 <path d="M3910 505 l0 -495 35 0 35 0 0 470 0 470 243 2 242 3 3 23 3 22 -280 0 -281 0 0 -495z"/>
 <path d="M4600 505 l0 -495 30 0 30 0 0 495 0 495 -30 0 -30 0 0 -495z"/>
 <path d="M5770 505 l0 -495 30 0 30 0 0 230 0 230 295 0 295 0 0 -230 0 -230 35 0 35 0 0 495 0 495 -35 0 -35 0 0 -230 0 -230 -295 0 -295 0 0 230 0 230 -30 0 -30 0 0 -495z"/>
 <path d="M6950 530 l0 -470 -162 -2 c-160 -3 -163 -3 -166 -25 l-3 -23 350 0 351 0 0 25 0 25 -155 0 -155 0 0 470 0 470 -30 0 -30 0 0 -470z"/>
 </g>

</svg>