<!DOCTYPE svg PUBLIC "-//W3C//DTD SVG 20010904//EN" "http://www.w3.org/TR/2001/REC-SVG-20010904/DTD/svg10.dtd">
<svg version="1.0" xmlns="http://www.w3.org/2000/svg" width="406px" height="654px" viewBox="0 0 4060 6540" preserveAspectRatio="xMidYMid meet">
<g id="layer1" fill="#ffffff" stroke="none">
 <path d="M1624 6524 c-242 -22 -474 -88 -699 -200 -172 -85 -295 -174 -435 -314 -141 -141 -230 -265 -314 -435 -99 -199 -140 -342 -166 -571 -14 -124 -14 -3344 0 -3468 18 -154 30 -216 67 -331 141 -438 441 -789 848 -989 326 -161 606 -216 1105 -216 499 0 779 55 1105 216 407 200 707 551 848 989 37 115 49 177 67 331 14 124 14 3344 0 3468 -26 229 -67 372 -166 571 -84 170 -173 294 -314 435 -140 140 -263 229 -435 314 -233 116 -453 178 -717 201 -197 18 -597 17 -794 -1z m740 -229 c439 -51 783 -201 1032 -449 204 -204 332 -453 406 -787 l23 -104 0 -1685 0 -1685 -23 -105 c-13 -58 -40 -157 -62 -221 -204 -613 -725 -971 -1492 -1025 l-98 -7 0 366 0 365 46 16 c69 23 136 70 199 138 60 64 76 91 108 177 19 51 21 84 25 379 4 363 -3 449 -46 544 -50 111 -168 220 -284 263 l-48 18 0 439 c0 472 0 476 -52 512 -29 21 -107 21 -136 0 -52 -36 -52 -40 -52 -512 l0 -439 -47 -18 c-116 -43 -235 -152 -285 -262 -44 -98 -50 -170 -46 -536 4 -310 6 -336 26 -391 32 -87 63 -134 128 -197 63 -59 126 -99 187 -119 l37 -12 0 -365 0 -366 -97 7 c-679 48 -1165 332 -1415 829 -49 99 -109 278 -140 417 l-23 105 0 1685 0 1685 23 104 c74 334 202 583 406 787 245 244 591 396 1019 448 157 19 521 20 681 1z m-252 -4047 c51 -15 121 -77 147 -131 20 -41 21 -59 21 -393 0 -387 -2 -394 -68 -460 -51 -51 -98 -69 -182 -69 -84 0 -131 18 -182 69 -66 66 -68 73 -68 460 0 334 1 352 21 393 24 50 95 116 141 130 45 15 123 15 170 1z"/>
 </g>

</svg>