<!DOCTYPE svg PUBLIC "-//W3C//DTD SVG 20010904//EN" "http://www.w3.org/TR/2001/REC-SVG-20010904/DTD/svg10.dtd">
<svg version="1.0" xmlns="http://www.w3.org/2000/svg" width="208px" height="278px" viewBox="0 0 2080 2780" preserveAspectRatio="xMidYMid meet">
<g id="layer1" fill="#7c7c7c" stroke="none">
 <path d="M650 2765 c-142 -15 -192 -25 -305 -62 -113 -36 -228 -98 -291 -156 l-54 -49 0 -167 c1 -197 21 -426 45 -496 73 -211 220 -325 520 -401 75 -18 145 -34 156 -34 10 0 39 16 64 35 131 100 379 100 510 0 25 -19 54 -35 65 -35 10 0 81 16 157 35 301 77 446 189 518 400 24 70 44 299 45 496 l0 167 -54 49 c-86 79 -256 157 -421 193 -171 38 -691 51 -955 25z"/>
 <path d="M881 1345 c-216 -80 -375 -309 -400 -575 -10 -110 2 -317 24 -403 51 -200 166 -321 339 -353 91 -18 301 -18 392 0 173 33 288 153 340 355 21 85 33 295 22 406 -26 266 -185 492 -402 571 -93 33 -224 33 -315 -1z"/>
 </g>

</svg>